<?xml version="1.0" encoding="UTF-8"?>
<svg width="1024px" height="1024px" viewBox="0 0 1024 1024" version="1.1" xmlns="http://www.w3.org/2000/svg" xmlns:xlink="http://www.w3.org/1999/xlink">
    <!-- Generator: Sketch 48.2 (47327) - http://www.bohemiancoding.com/sketch -->
    <title>Icon Copy 3</title>
    <desc>Created with Sketch.</desc>
    <defs></defs>
    <g id="Page-1" stroke="none" stroke-width="1" fill="none" fill-rule="evenodd">
        <g id="Icon-Copy-3">
            <rect id="Rectangle" x="-92" y="-50" width="1232" height="1151"></rect>
            <path d="M435.171201,170.458921 C441.581718,133.835217 473.540227,106 512,106 C550.459773,106 582.418282,133.835217 588.828799,170.458921 C564.105397,164.921556 538.393882,162 512,162 C485.606118,162 459.894603,164.921556 435.171201,170.458921 Z M435.171201,853.541079 C459.894603,859.078444 485.606118,862 512,862 C538.393882,862 564.105397,859.078444 588.828799,853.541079 C582.418282,890.164783 550.459773,918 512,918 C473.540227,918 441.581718,890.164783 435.171201,853.541079 Z M853.541079,435.171201 C890.164783,441.581718 918,473.540227 918,512 C918,550.459773 890.164783,582.418282 853.541079,588.828799 C859.078444,564.105397 862,538.393882 862,512 C862,485.606118 859.078444,459.894603 853.541079,435.171201 Z M170.458921,588.828799 C133.835217,582.418282 106,550.459773 106,512 C106,473.540227 133.835217,441.581718 170.458921,435.171201 C164.921556,459.894603 162,485.606118 162,512 C162,538.393882 164.921556,564.105397 170.458921,588.828799 Z M699.152552,216.186995 C729.584349,194.802131 771.882055,197.711348 799.085353,224.914647 C826.288652,252.117945 829.197869,294.415651 807.813005,324.847448 C780.076212,281.0984 742.9016,243.923788 699.152549,216.186997 Z M324.847448,807.813005 C294.415651,829.197869 252.117945,826.288652 224.914647,799.085353 C197.711348,771.882055 194.802131,729.584349 216.186995,699.152552 C243.923788,742.9016 281.0984,780.076212 324.847451,807.813003 Z M807.813005,699.152552 C829.197869,729.584349 826.288652,771.882055 799.085353,799.085353 C771.882055,826.288652 729.584349,829.197869 699.152552,807.813005 C742.9016,780.076212 780.076212,742.9016 807.813003,699.152549 Z M216.186995,324.847448 C194.802131,294.415651 197.711348,252.117945 224.914647,224.914647 C252.117945,197.711348 294.415651,194.802131 324.847448,216.186995 C281.0984,243.923788 243.923788,281.0984 216.186997,324.847451 Z" id="Combined-Shape" fill="#673AB7"></path>
            <path d="M512,812 C346.314575,812 212,677.685425 212,512 C212,346.314575 346.314575,212 512,212 C677.685425,212 812,346.314575 812,512 C812,677.685425 677.685425,812 512,812 Z M512,602 C561.705627,602 602,561.705627 602,512 C602,462.294373 561.705627,422 512,422 C462.294373,422 422,462.294373 422,512 C422,561.705627 462.294373,602 512,602 Z" id="Combined-Shape" fill="#673AB7"></path>
        </g>
    </g>
</svg>