<?xml version="1.0" standalone="no"?>
<!DOCTYPE svg PUBLIC "-//W3C//DTD SVG 20010904//EN"
 "http://www.w3.org/TR/2001/REC-SVG-20010904/DTD/svg10.dtd">
<svg version="1.0" xmlns="http://www.w3.org/2000/svg"
 width="98.000000pt" height="98.000000pt" viewBox="0 0 98.000000 98.000000"
 preserveAspectRatio="xMidYMid meet">
<metadata>
Created by potrace 1.11, written by Peter Selinger 2001-2013
</metadata>
<g transform="translate(0.000000,98.000000) scale(0.100000,-0.100000)"
fill="#000000" stroke="none">
<path d="M592 810 c86 -139 14 -316 -142 -349 -97 -21 -176 14 -248 110 -6 8
-18 40 -26 70 l-14 54 -17 -59 c-45 -154 23 -314 163 -383 31 -15 70 -42 85
-60 60 -68 152 -69 218 -1 22 23 58 50 79 59 104 47 180 164 180 279 0 81 -11
123 -49 182 -48 76 -120 121 -229 143 l-32 7 32 -52z"/>
<path d="M380 700 c-27 -27 -26 -71 3 -98 30 -28 68 -28 95 1 44 46 14 117
-48 117 -17 0 -39 -9 -50 -20z"/>
</g>
</svg>
